<?xml version="1.0" encoding="UTF-8"?> <!-- Generator: Adobe Illustrator 16.0.0, SVG Export Plug-In . SVG Version: 6.00 Build 0) --> <svg xmlns="http://www.w3.org/2000/svg" xmlns:xlink="http://www.w3.org/1999/xlink" id="Layer_1" x="0px" y="0px" width="500px" height="500px" viewBox="0 0 500 500" style="enable-background:new 0 0 500 500;" xml:space="preserve"> <style type="text/css"> <![CDATA[ .st0{clip-path:url(#SVGID_29_);fill:url(#SVGID_30_);} .st1{fill-rule:evenodd;clip-rule:evenodd;fill:#D9436E;} .st2{fill:#101111;} .st3{fill:#1074BC;} .st4{fill:#7FBA00;} .st5{fill:#12110B;} .st6{fill:#12814B;} .st7{fill:#E1302A;} .st8{fill:#E17420;} .st9{fill:#1373AA;} .st10{fill:none;stroke:#1F1F21;stroke-width:0.4343;stroke-miterlimit:3.8636;} .st11{fill:#E31F13;} .st12{fill:#151F4B;} .st13{fill:#E42918;} .st14{fill:#E5A61A;} .st15{fill:#17457B;} .st16{fill-rule:evenodd;clip-rule:evenodd;fill:#76B72A;} .st17{fill:#E64231;} .st18{fill:#E68B1D;} .st19{fill:#184684;} .st20{fill-rule:evenodd;clip-rule:evenodd;fill:#A70A2D;} .st21{fill-rule:evenodd;clip-rule:evenodd;fill:#0D0E0C;} .st22{fill:#E83030;} .st23{fill:#E845A7;} .st24{fill-rule:evenodd;clip-rule:evenodd;fill:#42BAEB;} .st25{fill:#B41E0A;} .st26{fill:#B5B5B5;} .st27{fill:#86C860;} .st28{fill:#EA6610;} .st29{fill:#B6BD38;} .st30{fill:#1C4CA0;} .st31{fill:#1D1D1B;} .st32{fill:#1D3C69;} .st33{fill:#1D5A85;} .st34{fill:#1D9CD8;} .st35{fill:#B8CC1A;} .st36{fill-rule:evenodd;clip-rule:evenodd;fill:#49C3B1;} .st37{fill:#89B336;} .st38{fill:#1E2046;} .st39{fill:#1EAFE5;} .st40{fill-rule:evenodd;clip-rule:evenodd;fill:#ADCC5F;} .st41{fill:#EDAE0E;} .st42{fill:#1F2440;} .st43{fill:#1F66AF;} .st44{fill:#52247F;} .st45{fill-rule:evenodd;clip-rule:evenodd;fill:#131313;} .st46{fill-rule:evenodd;clip-rule:evenodd;fill:#E20613;} .st47{fill:#53A733;} .st48{fill:#BAC51A;} .st49{fill:#8BBE28;} .st50{fill:#585857;} .st51{fill:#58A842;} .st52{fill:#8DC63F;} .st53{fill:#BDBEC0;} .st54{fill:#203462;} .st55{fill:#BED630;} .st56{fill:#212E38;} .st57{fill:#F0474D;} .st58{fill:#222E5B;} .st59{fill:#231F20;} .st60{fill:#241F20;} .st61{fill:#F2AA2E;} .st62{fill:#242829;} .st63{fill:#F5A21C;} .st64{fill:#27214E;} .st65{fill-rule:evenodd;clip-rule:evenodd;fill:#B60E0C;} .st66{fill:#F6882C;} .st67{fill-rule:evenodd;clip-rule:evenodd;fill:#1D1D1B;} .st68{fill:#29712A;} .st69{clip-path:url(#SVGID_11_);fill:url(#SVGID_12_);} .st70{fill-rule:evenodd;clip-rule:evenodd;fill:#1F1F21;} .st71{fill-rule:evenodd;clip-rule:evenodd;fill:#1F2440;} .st72{clip-path:url(#SVGID_14_);fill:url(#SVGID_15_);} .st73{clip-path:url(#SVGID_5_);fill:url(#SVGID_6_);} .st74{clip-path:url(#SVGID_17_);fill:url(#SVGID_18_);} .st75{fill:url(#SVGID_1_);} .st76{fill:url(#SVGID_2_);} .st77{fill:url(#SVGID_3_);} .st78{fill:#C2D346;} .st79{clip-path:url(#SVGID_32_);fill:url(#SVGID_33_);} .st80{fill:#C41230;} .st81{fill:#2A3176;} .st82{fill:#2A447F;} .st83{fill:#2B9CD7;} .st84{fill:#FAD807;} .st85{fill:#2C61AD;} .st86{fill:#988440;} .st87{fill:#C7D300;} .st88{fill:#2D416E;} .st89{fill-rule:evenodd;clip-rule:evenodd;fill:#8CC63F;} .st90{fill:#2E953E;} .st91{fill:#C91517;} .st92{fill:#FDC300;} .st93{fill:#FF5000;} .st94{fill:#FFCA05;} .st95{fill:#FFD100;} .st96{fill:#FFD432;} .st97{fill:#FFE300;} .st98{fill:#FFFFFF;} .st99{fill:#636567;} .st100{fill:none;} .st101{fill:#6598C1;} .st102{fill:#66A3D9;} .st103{fill-rule:evenodd;clip-rule:evenodd;fill:#F6A500;} .st104{fill:#68AF24;} .st105{fill:#303B40;} .st106{fill:#322651;} .st107{fill:#6B6968;} .st108{fill:#384494;} .st109{fill:#001F5F;} .st110{fill:#00303E;} .st111{fill:#003278;} .st112{fill:#00583D;} .st113{fill:#0065A4;} .st114{fill:#006A4B;} .st115{fill:#006B62;} .st116{fill:#0071AF;} .st117{fill:#007233;} .st118{fill:#0075B5;} .st119{fill:#007AC2;} .st120{fill:#008451;} .st121{fill:#00896E;} .st122{fill:#008C3F;} .st123{fill-rule:evenodd;clip-rule:evenodd;fill:#FDD200;} .st124{fill:#00A16C;} .st125{fill:#00A88E;} .st126{fill:#00AB53;} .st127{fill:#00B28D;} .st128{fill:#D02A1A;} .st129{fill-rule:evenodd;clip-rule:evenodd;fill:#FFCE00;} .st130{fill-rule:evenodd;clip-rule:evenodd;fill:#FFFFFF;} .st131{fill:#049C49;} .st132{fill:#D4531B;} .st133{fill:#06509D;} .st134{fill:#0687C7;} .st135{fill:#07396E;} .st136{fill:#088848;} .st137{fill-rule:evenodd;clip-rule:evenodd;fill:#9D7E3A;} .st138{fill:#7080BA;} .st139{fill-rule:evenodd;clip-rule:evenodd;fill:#CF0A2C;} .st140{fill:#738343;} .st141{fill:#73A534;} .st142{clip-path:url(#SVGID_8_);fill:url(#SVGID_9_);} .st143{fill:#0A9FDA;} .st144{fill:#A5A2A0;} .st145{fill:#DB0C15;} .st146{fill-rule:evenodd;clip-rule:evenodd;fill:#39B54A;} .st147{fill:#0F0F10;} .st148{fill:#0F145B;} .st149{fill:#0F1528;} .st150{fill-rule:evenodd;clip-rule:evenodd;fill:#003056;} .st151{fill-rule:evenodd;clip-rule:evenodd;fill:#006837;} .st152{fill-rule:evenodd;clip-rule:evenodd;fill:#006A53;} .st153{fill-rule:evenodd;clip-rule:evenodd;fill:#006FFF;} .st154{fill-rule:evenodd;clip-rule:evenodd;fill:#0071AF;} .st155{fill-rule:evenodd;clip-rule:evenodd;fill:#0082C0;} .st156{clip-path:url(#SVGID_20_);fill:url(#SVGID_21_);} .st157{clip-path:url(#SVGID_23_);fill:url(#SVGID_24_);} .st158{fill:#43B649;} .st159{fill:#4470B6;} .st160{clip-path:url(#SVGID_26_);fill:url(#SVGID_27_);} ]]> </style> <g> <path class="st149" d="M302.9,229.3c-0.9-16-14.6-28.2-30.5-28.2h-55.8v97.8h55.8c15.9,0,29.6-12.2,30.5-28.2 c0.4-7.9-2.2-15.1-6.8-20.7C300.7,244.4,303.3,237.2,302.9,229.3 M273.1,277.2h-34.9v-16.3h34.9c4.5,0,8.1,3.7,8.1,8.2 C281.2,273.5,277.6,277.2,273.1,277.2 M273.1,239.1h-34.9v-16.3h34.9c4.5,0,8.1,3.6,8.1,8.2C281.2,235.5,277.6,239.1,273.1,239.1"></path> <path class="st149" d="M394.5,201.1h-62.4c-4.3,0-8.2,1.4-11.4,3.8c-4.6,3.5-7.6,9-7.6,15.2c0,0.9,0.1,1.8,0.2,2.7 c0.6,4.4,2.8,8.3,5.9,11.2l47.8,43.1h-48.8l-10.1,21.7h67.4c4.3,0,8.2-1.4,11.4-3.8c4.6-3.5,7.6-9,7.6-15.2c0-0.9-0.1-1.8-0.2-2.7 c-0.7-4.6-3-8.8-6.4-11.7l-47.3-42.6h43.8L394.5,201.1z"></path> <rect x="178.6" y="201.1" class="st149" width="21.7" height="97.8"></rect> <path class="st149" d="M414.8,290.6c0.3-0.4,0.4-0.9,0.4-1.4c0-0.7-0.2-1.3-0.8-1.8c-0.5-0.5-1.1-0.8-1.9-0.8h-3.5v7.9h1.5v-2.7 h1.7l1.3,2.7h1.7l-1.4-3C414.2,291.3,414.6,291,414.8,290.6 M413.4,290.1c-0.2,0.2-0.5,0.4-0.8,0.4h-2V288h2c0.3,0,0.5,0.1,0.8,0.3 c0.2,0.2,0.4,0.5,0.4,0.8C413.7,289.5,413.6,289.8,413.4,290.1"></path> <path class="st149" d="M415.9,283.6c-1.3-0.7-2.6-1.1-4.1-1.1c-1.5,0-2.9,0.4-4.1,1.1c-1.3,0.7-2.3,1.7-3,3 c-0.7,1.2-1.1,2.6-1.1,4.1c0,1.5,0.4,2.9,1.1,4.1c0.7,1.3,1.7,2.3,3,3c1.3,0.7,2.6,1.1,4.1,1.1c1.5,0,2.8-0.4,4.1-1.1 c1.3-0.7,2.3-1.7,3-3c0.7-1.3,1.1-2.6,1.1-4.1c0-1.5-0.4-2.9-1.1-4.1C418.2,285.3,417.2,284.3,415.9,283.6 M417.2,293.8 c-0.6,1-1.3,1.7-2.3,2.3c-1,0.6-2,0.8-3.1,0.8c-1.1,0-2.2-0.3-3.2-0.8c-1-0.6-1.7-1.3-2.3-2.3c-0.6-1-0.8-2-0.8-3.1 c0-1.2,0.3-2.2,0.8-3.2c0.6-1,1.3-1.7,2.3-2.3c1-0.6,2-0.8,3.2-0.8c1.1,0,2.2,0.3,3.1,0.8c1,0.6,1.7,1.3,2.3,2.3 c0.6,1,0.8,2,0.8,3.2C418.1,291.8,417.8,292.8,417.2,293.8"></path> <path class="st149" d="M159.8,265.5l-47.3-42.6H85.2c0.6,4.4,2.8,8.3,5.9,11.2l47.8,43.1h27.3C165.5,272.5,163.2,268.4,159.8,265.5 z"></path> <path class="st39" d="M112.5,222.8h43.8l10.1-21.7H104c-4.3,0-8.2,1.4-11.4,3.8c0,0,0,0,0,0L112.5,222.8L112.5,222.8z"></path> <path class="st43" d="M138.9,277.2L138.9,277.2H90.1L80,298.9h67.4c4.3,0,8.2-1.4,11.4-3.8c0,0,0,0,0,0L138.9,277.2z"></path> <path class="st15" d="M166.4,279.9c0-0.9-0.1-1.8-0.2-2.7c0,0,0,0,0,0h-27.3l19.9,17.9C163.4,291.6,166.4,286.1,166.4,279.9z"></path> <path class="st43" d="M92.6,205c-4.6,3.5-7.5,9-7.5,15.2c0,0.9,0.1,1.8,0.2,2.7h27.2L92.6,205z"></path> </g> </svg> 